<?xml version="1.0" encoding="UTF-8"?>
<svg version="1.1" xmlns="http://www.w3.org/2000/svg" width="2134" height="2134">
<path d="M0 0 C2.91597143 2.61820707 2.91597143 2.61820707 6.59375 3.734375 C10.83978637 4.76999363 13.29001334 8.19577661 16.15625 11.359375 C14.57739525 15.25369305 11.91523265 17.84136287 8.95703125 20.71875 C8.18712105 21.48085785 8.18712105 21.48085785 7.4016571 22.25836182 C5.76205301 23.88021149 4.11593847 25.4952316 2.46875 27.109375 C0.84022962 28.71002221 -0.78671036 30.31219474 -2.41059875 31.9175415 C-3.41845691 32.91341896 -4.42896879 33.90662194 -5.4427948 34.89642334 C-8.0399724 37.45777951 -10.48525279 40.08357429 -12.84887695 42.86230469 C-17.82874728 48.60922519 -23.27531518 53.90135365 -28.66685486 59.25764465 C-30.66286524 61.24074534 -32.65560706 63.22708074 -34.64758301 65.2142334 C-39.59274951 70.14611928 -44.54337469 75.07251387 -49.49383545 79.99908447 C-53.68789606 84.17332855 -57.87984363 88.34967356 -62.06907654 92.52876282 C-64.02059251 94.47385545 -65.97512385 96.41588166 -67.92980957 98.35778809 C-74.83042363 105.17642146 -74.83042363 105.17642146 -81.34375 112.359375 C-86.11968823 117.96909565 -91.44410336 123.06903833 -96.66685486 128.25764465 C-98.66286524 130.24074534 -100.65560706 132.22708074 -102.64758301 134.2142334 C-107.59274951 139.14611928 -112.54337469 144.07251387 -117.49383545 148.99908447 C-121.68789606 153.17332855 -125.87984363 157.34967356 -130.06907654 161.52876282 C-132.02059251 163.47385545 -133.97512385 165.41588166 -135.92980957 167.35778809 C-142.83042363 174.17642146 -142.83042363 174.17642146 -149.34375 181.359375 C-154.11968823 186.96909565 -159.44410336 192.06903833 -164.66685486 197.25764465 C-166.66286524 199.24074534 -168.65560706 201.22708074 -170.64758301 203.2142334 C-175.59274951 208.14611928 -180.54337469 213.07251387 -185.49383545 217.99908447 C-189.68789606 222.17332855 -193.87984363 226.34967356 -198.06907654 230.52876282 C-200.02059251 232.47385545 -201.97512385 234.41588166 -203.92980957 236.35778809 C-210.83042363 243.17642146 -210.83042363 243.17642146 -217.34375 250.359375 C-222.11968823 255.96909565 -227.44410336 261.06903833 -232.66685486 266.25764465 C-234.66286524 268.24074534 -236.65560706 270.22708074 -238.64758301 272.2142334 C-243.59274951 277.14611928 -248.54337469 282.07251387 -253.49383545 286.99908447 C-257.68789606 291.17332855 -261.87984363 295.34967356 -266.06907654 299.52876282 C-268.02059251 301.47385545 -269.97512385 303.41588166 -271.92980957 305.35778809 C-278.83042363 312.17642146 -278.83042363 312.17642146 -285.34375 319.359375 C-290.11968823 324.96909565 -295.44410336 330.06903833 -300.66685486 335.25764465 C-302.66286524 337.24074534 -304.65560706 339.22708074 -306.64758301 341.2142334 C-311.59274951 346.14611928 -316.54337469 351.07251387 -321.49383545 355.99908447 C-325.68789606 360.17332855 -329.87984363 364.34967356 -334.06907654 368.52876282 C-336.02059251 370.47385545 -337.97512385 372.41588166 -339.92980957 374.35778809 C-345.10780828 379.51463367 -350.19370751 384.65692626 -354.93322754 390.22399902 C-359.23906306 395.03659763 -363.90163891 399.52289414 -368.48165894 404.07244873 C-370.4440664 406.02194255 -372.40320154 407.97467425 -374.36157227 409.92822266 C-379.22326197 414.77663415 -384.09041144 419.61955269 -388.95739746 424.46264648 C-393.08099942 428.56642918 -397.20248626 432.67231467 -401.32125854 436.78094482 C-403.23953514 438.69279979 -405.16082743 440.60158706 -407.08227539 442.51025391 C-413.89761133 449.24791018 -413.89761133 449.24791018 -420.33007812 456.34570312 C-425.11182261 461.95908743 -430.43942995 467.06439548 -435.66685486 472.25764465 C-437.66286524 474.24074534 -439.65560706 476.22708074 -441.64758301 478.2142334 C-446.59274951 483.14611928 -451.54337469 488.07251387 -456.49383545 492.99908447 C-460.68789606 497.17332855 -464.87984363 501.34967356 -469.06907654 505.52876282 C-471.02059251 507.47385545 -472.97512385 509.41588166 -474.92980957 511.35778809 C-481.83042363 518.17642146 -481.83042363 518.17642146 -488.34375 525.359375 C-493.11968823 530.96909565 -498.44410336 536.06903833 -503.66685486 541.25764465 C-505.66286524 543.24074534 -507.65560706 545.22708074 -509.64758301 547.2142334 C-514.59274951 552.14611928 -519.54337469 557.07251387 -524.49383545 561.99908447 C-528.68789606 566.17332855 -532.87984363 570.34967356 -537.06907654 574.52876282 C-539.02059251 576.47385545 -540.97512385 578.41588166 -542.92980957 580.35778809 C-549.83042363 587.17642146 -549.83042363 587.17642146 -556.34375 594.359375 C-561.11968823 599.96909565 -566.44410336 605.06903833 -571.66685486 610.25764465 C-573.66286524 612.24074534 -575.65560706 614.22708074 -577.64758301 616.2142334 C-582.59274951 621.14611928 -587.54337469 626.07251387 -592.49383545 630.99908447 C-596.68789606 635.17332855 -600.87984363 639.34967356 -605.06907654 643.52876282 C-607.02059251 645.47385545 -608.97512385 647.41588166 -610.92980957 649.35778809 C-618.93380183 657.32648295 -618.93380183 657.32648295 -626.46626282 665.7386322 C-629.02820064 668.7529922 -631.77125776 671.5898545 -634.53125 674.421875 C-635.08619141 675.01419922 -635.64113281 675.60652344 -636.21289062 676.21679688 C-637.85546875 677.89453125 -637.85546875 677.89453125 -640.84375 680.359375 C-644.48818924 679.92884467 -646.10832775 678.425687 -648.59375 675.796875 C-649.20734375 675.15621094 -649.8209375 674.51554687 -650.453125 673.85546875 C-650.91203125 673.36175781 -651.3709375 672.86804687 -651.84375 672.359375 C-650.20272576 668.15323152 -647.09656469 665.3526353 -643.94458008 662.24902344 C-643.34105713 661.64681473 -642.73753418 661.04460602 -642.11572266 660.42414856 C-640.11946448 658.43438022 -638.11632593 656.45168435 -636.11328125 654.46875 C-634.71992444 653.08166764 -633.32708423 651.69406617 -631.93473816 650.30596924 C-628.26405426 646.64859339 -624.58785584 642.99681526 -620.91003418 639.34661865 C-615.04032989 633.51999213 -609.17720196 627.68676919 -603.31748009 621.85010529 C-601.27768662 619.82045934 -599.23446995 617.79430814 -597.19087219 615.76849365 C-591.86420379 610.47617684 -586.6102672 605.2132915 -581.74613953 599.487854 C-577.38726982 594.61095444 -572.65943169 590.06956455 -568.02064514 585.46110535 C-566.02463476 583.47800466 -564.03189294 581.49166926 -562.03991699 579.5045166 C-557.09475049 574.57263072 -552.14412531 569.64623613 -547.19366455 564.71966553 C-542.99960394 560.54542145 -538.80765637 556.36907644 -534.61842346 552.18998718 C-532.66690749 550.24489455 -530.71237615 548.30286834 -528.75769043 546.36096191 C-523.54175802 541.16635638 -518.40954819 535.98713464 -513.6355896 530.3782959 C-509.38891932 525.59344162 -504.7563371 521.15172729 -500.22265625 516.640625 C-499.11142877 515.53126667 -498.00042488 514.42168433 -496.88963318 513.31188965 C-493.99030629 510.41634884 -491.08798728 507.52382593 -488.18499756 504.63195801 C-485.21328694 501.67054636 -482.24446733 498.70623946 -479.27539062 495.7421875 C-473.4676418 489.9451069 -467.65672327 484.1512168 -461.84375 478.359375 C-462.79811474 477.24186797 -463.75306148 476.12485796 -464.70825195 475.00805664 C-465.23997513 474.38596817 -465.7716983 473.7638797 -466.3195343 473.12294006 C-468.1787162 470.97180867 -470.10081458 468.88413496 -472.03125 466.796875 C-477.64215055 460.57609396 -482.74772568 454.0018263 -487.84375 447.359375 C-488.33278809 446.72725098 -488.82182617 446.09512695 -489.32568359 445.44384766 C-527.39454066 396.16148561 -552.02407082 337.92876225 -562.09375 276.546875 C-562.24489258 275.63091553 -562.39603516 274.71495605 -562.55175781 273.77124023 C-565.21096683 256.52089734 -566.22640312 239.29694147 -566.15625 221.859375 C-566.15442719 220.90814758 -566.15260437 219.95692017 -566.15072632 218.97686768 C-565.88806272 137.0104257 -535.83566189 61.19490711 -478.84375 2.359375 C-476.87537442 0.50720048 -474.87490282 -1.26023262 -472.80078125 -2.9921875 C-470.59902096 -4.84676403 -468.51308433 -6.80396749 -466.40625 -8.765625 C-445.57278142 -27.52213736 -421.17456434 -42.64932341 -395.91015625 -54.65478516 C-394.51533977 -55.32022336 -393.12476463 -55.99461525 -391.73828125 -56.67724609 C-358.47661246 -73.01696624 -321.46782468 -82.11935262 -284.84375 -86.640625 C-283.91095215 -86.75776855 -282.9781543 -86.87491211 -282.01708984 -86.99560547 C-182.53560659 -98.86004606 -75.06595486 -66.79597678 0 0 Z M-393.84375 -40.640625 C-395.13079834 -40.00640625 -395.13079834 -40.00640625 -396.44384766 -39.359375 C-408.10147809 -33.56113643 -419.09439027 -26.97930969 -429.84375 -19.640625 C-430.46620605 -19.2178125 -431.08866211 -18.795 -431.72998047 -18.359375 C-440.57469416 -12.31332238 -448.79029817 -5.69917706 -456.84375 1.359375 C-457.65972656 2.06320312 -458.47570312 2.76703125 -459.31640625 3.4921875 C-471.05588152 13.80097547 -482.39479016 24.89885798 -491.84375 37.359375 C-492.3402002 37.99584961 -492.83665039 38.63232422 -493.34814453 39.28808594 C-543.14521991 103.22688457 -560.02080365 185.41919903 -550.296875 264.86621094 C-541.35097075 333.8306495 -511.75253627 400.08477008 -465.84375 452.359375 C-464.85955078 453.49246094 -464.85955078 453.49246094 -463.85546875 454.6484375 C-462.19226779 456.55872153 -460.51928082 458.45990688 -458.84375 460.359375 C-457.53070003 461.8588936 -456.21819374 463.35888845 -454.90625 464.859375 C-454.02646484 465.86484375 -454.02646484 465.86484375 -453.12890625 466.890625 C-452.70480469 467.3753125 -452.28070312 467.86 -451.84375 468.359375 C-451.20050781 467.71613281 -450.55726563 467.07289063 -449.89453125 466.41015625 C-443.2109375 459.7265625 -436.52734375 453.04296875 -429.84375 446.359375 C-430.77951434 445.26395239 -431.71581994 444.16899213 -432.65234375 443.07421875 C-433.43436157 442.15950806 -433.43436157 442.15950806 -434.23217773 441.22631836 C-435.77263018 439.44176452 -437.3349761 437.67928728 -438.90625 435.921875 C-484.19028118 384.05470272 -512.5049049 321.80126643 -520.84375 253.359375 C-521.00061279 252.12743408 -521.00061279 252.12743408 -521.16064453 250.87060547 C-522.24268002 241.03937423 -522.0876571 231.11230488 -522.09375 221.234375 C-522.09442474 220.25239136 -522.09509949 219.27040771 -522.09579468 218.25866699 C-522.07924536 203.08464412 -521.54911859 188.3278602 -518.84375 173.359375 C-518.66682617 172.36147949 -518.48990234 171.36358398 -518.30761719 170.33544922 C-515.76837208 156.39152899 -512.31607862 142.80588118 -507.84375 129.359375 C-507.6267041 128.69631348 -507.4096582 128.03325195 -507.18603516 127.35009766 C-498.94135463 102.57803296 -486.11455703 78.76384652 -469.84375 58.359375 C-469.13863281 57.4621875 -468.43351562 56.565 -467.70703125 55.640625 C-461.76849044 48.2201144 -455.37206949 41.25831893 -448.84375 34.359375 C-448.20566406 33.67875 -447.56757812 32.998125 -446.91015625 32.296875 C-441.96219837 27.17093302 -436.42650772 22.76842975 -430.84375 18.359375 C-430.23241211 17.87162598 -429.62107422 17.38387695 -428.99121094 16.88134766 C-388.83013097 -15.05817127 -341.40210248 -34.51981259 -290.84375 -42.640625 C-289.88968262 -42.80433594 -288.93561523 -42.96804688 -287.95263672 -43.13671875 C-256.72109618 -48.35005402 -222.02242989 -47.99880138 -190.84375 -42.640625 C-189.81378906 -42.47433594 -188.78382813 -42.30804687 -187.72265625 -42.13671875 C-142.13861048 -34.67751126 -98.12013221 -17.56679669 -59.84375 8.359375 C-59.19083984 8.79975098 -58.53792969 9.24012695 -57.86523438 9.69384766 C-46.6625707 17.29716637 -36.16610357 25.60480087 -25.84375 34.359375 C-22.48039406 32.90192076 -20.29840995 31.04819646 -17.734375 28.4453125 C-16.98027344 27.68476562 -16.22617188 26.92421875 -15.44921875 26.140625 C-14.67191406 25.3465625 -13.89460938 24.5525 -13.09375 23.734375 C-12.30097656 22.93257812 -11.50820312 22.13078125 -10.69140625 21.3046875 C-8.73760507 19.32734654 -6.78862897 17.34548591 -4.84375 15.359375 C-6.7011444 11.22359135 -9.41245696 9.04262725 -12.96875 6.359375 C-13.90364258 5.64261597 -13.90364258 5.64261597 -14.85742188 4.91137695 C-16.18257544 3.89789819 -17.510449 2.88796742 -18.84082031 1.88134766 C-20.75796144 0.42456343 -22.65769337 -1.05228046 -24.5546875 -2.53515625 C-42.1055044 -16.13292159 -61.13654689 -27.46964711 -80.84375 -37.640625 C-81.61686523 -38.04087891 -82.38998047 -38.44113281 -83.18652344 -38.85351562 C-123.34284085 -59.37746714 -168.0814642 -70.67684524 -212.84375 -74.640625 C-213.62959473 -74.71120117 -214.41543945 -74.78177734 -215.22509766 -74.85449219 C-276.23610033 -80.04516493 -339.09490626 -67.75396276 -393.84375 -40.640625 Z M-432.2734375 36.94140625 C-434.4746147 39.01211854 -436.71962099 40.97738707 -439.03125 42.921875 C-482.89015921 81.19710377 -505.17804904 143.56041852 -509.64526367 200.03588867 C-514.51074094 281.50420599 -486.27637596 362.3149067 -432.19921875 423.37109375 C-430.71377451 425.01912393 -429.22237426 426.66182332 -427.72265625 428.296875 C-425.33799476 430.91454915 -423.08176039 433.61600743 -420.84375 436.359375 C-415.40641945 431.82945704 -410.37916069 427.01643284 -405.40625 421.984375 C-404.67470703 421.24832031 -403.94316406 420.51226563 -403.18945312 419.75390625 C-401.40522277 417.95801426 -399.62338876 416.15981515 -397.84375 414.359375 C-399.12765625 412.86277344 -399.12765625 412.86277344 -400.4375 411.3359375 C-400.98792969 410.69301758 -401.53835938 410.05009766 -402.10546875 409.38769531 C-403.21010137 408.0987504 -404.316655 406.81144741 -405.42578125 405.52636719 C-437.18656305 368.58377049 -459.20815885 324.06437078 -468.09375 276.109375 C-468.24481201 275.29621826 -468.39587402 274.48306152 -468.55151367 273.64526367 C-471.181185 258.52428275 -472.22521839 243.50420869 -472.15625 228.171875 C-472.15442719 227.32319855 -472.15260437 226.47452209 -472.15072632 225.60012817 C-472.10173895 211.99584236 -471.43260958 198.74704059 -468.84375 185.359375 C-468.67746094 184.4715332 -468.51117187 183.58369141 -468.33984375 182.66894531 C-460.48038746 141.84343627 -442.50150429 104.54000512 -413.84375 74.359375 C-413.37243652 73.86083008 -412.90112305 73.36228516 -412.41552734 72.84863281 C-404.48403737 64.51436197 -396.09238088 57.19531957 -386.84375 50.359375 C-385.99296875 49.72515625 -385.1421875 49.0909375 -384.265625 48.4375 C-377.09488435 43.26127 -369.49274761 38.78270337 -361.84375 34.359375 C-360.15185547 33.369375 -360.15185547 33.369375 -358.42578125 32.359375 C-321.29759548 11.55080987 -278.43962489 2.8809035 -236.21875 3.046875 C-234.77008041 3.04960922 -234.77008041 3.04960922 -233.29214478 3.05239868 C-218.62864175 3.09892062 -204.28470985 3.60592627 -189.84375 6.359375 C-188.41893311 6.62476074 -188.41893311 6.62476074 -186.96533203 6.89550781 C-165.32545792 11.02724305 -145.0171211 17.54647401 -124.84375 26.359375 C-124.06870117 26.69727051 -123.29365234 27.03516602 -122.49511719 27.38330078 C-99.06307533 37.71914869 -78.42659519 51.97957497 -58.84375 68.359375 C-54.83269338 66.51224135 -52.08357782 63.86565893 -49.03125 60.734375 C-48.50370117 60.19748047 -47.97615234 59.66058594 -47.43261719 59.10742188 C-45.89458767 57.53261544 -44.36723275 55.94824549 -42.84375 54.359375 C-41.68552734 53.15667969 -41.68552734 53.15667969 -40.50390625 51.9296875 C-36.5210622 47.89857271 -36.5210622 47.89857271 -35.84375 42.359375 C-37.82564859 40.47519714 -39.71722028 38.90663421 -41.90625 37.296875 C-42.53893799 36.81790771 -43.17162598 36.33894043 -43.82348633 35.84545898 C-45.15877519 34.83860347 -46.49865943 33.83781711 -47.84277344 32.84277344 C-49.72234663 31.44937584 -51.58530155 30.0365347 -53.4453125 28.6171875 C-135.44420826 -33.41900905 -245.92700242 -50.75282109 -432.2734375 36.94140625 Z M-278.84375 18.359375 C-279.78508789 18.52034668 -280.72642578 18.68131836 -281.69628906 18.84716797 C-320.91470076 25.85959782 -359.94404544 42.66657882 -389.84375 69.359375 C-390.33133789 69.7934668 -390.81892578 70.22755859 -391.32128906 70.67480469 C-394.87732376 73.85277441 -398.37031045 77.09140652 -401.84375 80.359375 C-402.90722656 81.34164062 -402.90722656 81.34164062 -403.9921875 82.34375 C-440.2166155 116.94177511 -458.88525618 170.6545188 -460.046875 219.86328125 C-460.73485351 281.83393138 -441.12421021 341.140504 -401.84375 389.359375 C-401.33215332 389.9898877 -400.82055664 390.62040039 -400.29345703 391.27001953 C-398.67735435 393.24847708 -397.04546873 395.21254282 -395.40625 397.171875 C-394.89771484 397.7896582 -394.38917969 398.40744141 -393.86523438 399.04394531 C-392.59097631 400.54141234 -391.22355859 401.95856475 -389.84375 403.359375 C-386.89523195 403.68031651 -386.89523195 403.68031651 -385.31665039 402.08105469 C-384.78031982 401.48711914 -384.24398926 400.89318359 -383.69140625 400.28125 C-383.08498291 399.61996094 -382.47855957 398.95867187 -381.85375977 398.27734375 C-381.21108154 397.56191406 -380.56840332 396.84648438 -379.90625 396.109375 C-378.56418329 394.6442896 -377.22041018 393.18076563 -375.875 391.71875 C-375.20210937 390.98591797 -374.52921875 390.25308594 -373.8359375 389.49804688 C-370.93072379 386.37921451 -367.93348121 383.35930885 -364.90625 380.359375 C-364.39263916 379.84987305 -363.87902832 379.34037109 -363.34985352 378.81542969 C-362.18331286 377.66122375 -361.01390401 376.50991749 -359.84375 375.359375 C-360.20581543 374.93817383 -360.56788086 374.51697266 -360.94091797 374.08300781 C-362.57731846 372.1769403 -364.21077855 370.26838089 -365.84375 368.359375 C-366.34551758 367.77478516 -366.84728516 367.19019531 -367.36425781 366.58789062 C-376.2757066 356.13756395 -383.90121429 345.20707153 -390.84375 333.359375 C-391.26140625 332.64668457 -391.6790625 331.93399414 -392.109375 331.19970703 C-407.55019699 304.42266468 -417.86299325 271.7035332 -418.046875 240.65234375 C-418.05393463 239.85334656 -418.06099426 239.05434937 -418.06826782 238.23114014 C-418.29584154 204.92453392 -418.29584154 204.92453392 -414.84375 190.359375 C-414.64507324 189.49183594 -414.44639648 188.62429688 -414.24169922 187.73046875 C-407.10889193 157.33990105 -393.30290031 131.03947697 -371.84375 108.359375 C-370.69132812 107.12767578 -370.69132812 107.12767578 -369.515625 105.87109375 C-335.81726441 70.92263269 -285.92161027 55.24459777 -238.38818359 54.12695312 C-187.585505 53.69014958 -138.57570754 71.613272 -100.15625 104.671875 C-97.9169788 106.65410954 -97.9169788 106.65410954 -94.84375 106.359375 C-92.66872394 104.44711514 -90.66018629 102.52304828 -88.64453125 100.453125 C-88.04948288 99.85383179 -87.45443451 99.25453857 -86.84135437 98.63708496 C-84.93917948 96.71809408 -83.04768795 94.78894388 -81.15625 92.859375 C-79.86983 91.55791199 -78.5827289 90.25712182 -77.29492188 88.95703125 C-74.13656998 85.76557131 -70.98776203 82.56496002 -67.84375 79.359375 C-69.24926871 76.03440954 -70.8093045 74.31261429 -73.67578125 72.14453125 C-74.4632373 71.54737305 -75.25069336 70.95021484 -76.06201172 70.33496094 C-76.91811035 69.70364258 -77.77420898 69.07232422 -78.65625 68.421875 C-79.54844238 67.7609082 -80.44063477 67.09994141 -81.35986328 66.41894531 C-126.37935217 33.53007933 -179.6020965 15.1537566 -235.46875 15.109375 C-236.23731323 15.10870026 -237.00587646 15.10802551 -237.79772949 15.10733032 C-251.64980016 15.12651651 -265.17108228 16.00902055 -278.84375 18.359375 Z M-274.84375 70.359375 C-275.70887207 70.55805176 -276.57399414 70.75672852 -277.46533203 70.96142578 C-319.75828053 80.95984729 -358.28446681 104.02617756 -381.84375 141.359375 C-382.21886719 141.95314941 -382.59398437 142.54692383 -382.98046875 143.15869141 C-398.91071937 168.84146321 -406.26326384 199.10180864 -406.21875 229.171875 C-406.21787384 229.8344632 -406.21699768 230.49705139 -406.21609497 231.17971802 C-406.09259233 259.87292807 -399.58890613 287.6527537 -386.84375 313.359375 C-386.46879395 314.13087891 -386.09383789 314.90238281 -385.70751953 315.69726562 C-378.15510415 331.13552247 -368.90657326 344.83473065 -357.78125 357.921875 C-357.23299561 358.57188477 -356.68474121 359.22189453 -356.11987305 359.89160156 C-354.76233785 361.44294906 -353.30982954 362.9101712 -351.84375 364.359375 C-348.89219524 364.66596817 -348.89219524 364.66596817 -347.20135498 363.08447266 C-346.31036102 362.18801025 -346.31036102 362.18801025 -345.40136719 361.2734375 C-344.7234613 360.59853271 -344.04555542 359.92362793 -343.34710693 359.22827148 C-342.6189679 358.48778564 -341.89082886 357.7472998 -341.140625 356.984375 C-340.38460999 356.22648682 -339.62859497 355.46859863 -338.84967041 354.68774414 C-337.24571695 353.07705537 -335.64537175 351.46276673 -334.04833984 349.84521484 C-331.62443958 347.3904553 -329.19031409 344.9462457 -326.75390625 342.50390625 C-325.1946937 340.93551077 -323.63608121 339.36651846 -322.078125 337.796875 C-320.99806183 336.71043701 -320.99806183 336.71043701 -319.8961792 335.60205078 C-316.71976371 332.38143991 -313.62220376 329.14275 -310.69042969 325.69726562 C-305.76626072 319.99986279 -300.35967884 314.76523364 -295.02064514 309.46110535 C-293.02463476 307.47800466 -291.03189294 305.49166926 -289.03991699 303.5045166 C-284.09475049 298.57263072 -279.14412531 293.64623613 -274.19366455 288.71966553 C-269.99960394 284.54542145 -265.80765637 280.36907644 -261.61842346 276.18998718 C-259.66690749 274.24489455 -257.71237615 272.30286834 -255.75769043 270.36096191 C-248.85707637 263.54232854 -248.85707637 263.54232854 -242.34375 256.359375 C-237.56781177 250.74965435 -232.24339664 245.64971167 -227.02064514 240.46110535 C-225.02463476 238.47800466 -223.03189294 236.49166926 -221.03991699 234.5045166 C-216.09475049 229.57263072 -211.14412531 224.64623613 -206.19366455 219.71966553 C-201.99960394 215.54542145 -197.80765637 211.36907644 -193.61842346 207.18998718 C-191.66690749 205.24489455 -189.71237615 203.30286834 -187.75769043 201.36096191 C-180.852127 194.53687312 -180.852127 194.53687312 -174.33447266 187.34790039 C-169.60401932 181.79135383 -164.3246859 176.74793672 -159.14471054 171.61573601 C-157.17407947 169.66268962 -155.2071791 167.70595431 -153.24124146 165.7481842 C-147.65649837 160.18773039 -142.06605078 154.63303801 -136.47119141 149.08276367 C-133.0353356 145.67377647 -129.60443811 142.25986275 -126.17648697 138.84292793 C-124.87630884 137.54892824 -123.57424015 136.2568251 -122.27019882 134.96671867 C-120.44485538 133.16072149 -118.62587666 131.34852637 -116.80810547 129.53491211 C-116.27603485 129.01160309 -115.74396423 128.48829407 -115.19577026 127.9491272 C-111.60844016 124.3524701 -108.71010173 120.55540059 -105.84375 116.359375 C-141.95341602 84.35629845 -187.82448058 66.81630025 -236.03125 67.046875 C-236.84490021 67.04903015 -237.65855042 67.0511853 -238.49685669 67.05340576 C-250.82732305 67.10574131 -262.79057255 67.53690782 -274.84375 70.359375 Z " fill="#FFFFFF" transform="translate(1305.84375,768.640625)"/>
<path d="M0 0 C4.26615504 2.04066983 6.73398524 4.58553002 10 8 C8.57117786 11.26233121 6.82946748 13.40993909 4.30395508 15.90722656 C3.54589066 16.66191223 2.78782623 17.4165979 2.00679016 18.19415283 C1.18599472 19.00148865 0.36519928 19.80882446 -0.48046875 20.640625 C-1.32668289 21.48163757 -2.17289703 22.32265015 -3.04475403 23.18914795 C-5.75430529 25.88088337 -8.47042077 28.56586526 -11.1875 31.25 C-13.88589762 33.92066362 -16.58278724 36.59280522 -19.27668762 39.26800537 C-20.95233414 40.93152597 -22.63064603 42.5923676 -24.3120575 44.25006104 C-27.73432442 47.64344478 -31.0861987 51.03663409 -34.21020508 54.70800781 C-39.10638899 60.39808805 -44.50114144 65.61110004 -49.82310486 70.89826965 C-51.81911524 72.88137034 -53.81185706 74.86770574 -55.80383301 76.8548584 C-60.74899951 81.78674428 -65.69962469 86.71313887 -70.65008545 91.63970947 C-74.84414606 95.81395355 -79.03609363 99.99029856 -83.22532654 104.16938782 C-85.17684251 106.11448045 -87.13137385 108.05650666 -89.08605957 109.99841309 C-95.98667363 116.81704646 -95.98667363 116.81704646 -102.5 124 C-107.27593823 129.60972065 -112.60035336 134.70966333 -117.82310486 139.89826965 C-119.81911524 141.88137034 -121.81185706 143.86770574 -123.80383301 145.8548584 C-128.74899951 150.78674428 -133.69962469 155.71313887 -138.65008545 160.63970947 C-142.84414606 164.81395355 -147.03609363 168.99029856 -151.22532654 173.16938782 C-153.17684251 175.11448045 -155.13137385 177.05650666 -157.08605957 178.99841309 C-167.88529479 188.98806173 -167.88529479 188.98806173 -176 201 C-174.85724609 202.21623047 -174.85724609 202.21623047 -173.69140625 203.45703125 C-167.17602914 210.42748762 -160.9191183 217.50993087 -155 225 C-154.47647949 225.65629395 -153.95295898 226.31258789 -153.41357422 226.98876953 C-145.42817835 237.01164715 -137.808655 247.13857417 -131 258 C-130.53916016 258.73379883 -130.07832031 259.46759766 -129.60351562 260.22363281 C-95.87124125 314.33488469 -72.06500251 378.34008447 -71.796875 442.75390625 C-71.79117493 443.8530687 -71.78547485 444.95223114 -71.77960205 446.08470154 C-71.7702083 448.40500953 -71.76364064 450.72533053 -71.75976562 453.0456543 C-71.75016968 456.50139472 -71.71913698 459.95651076 -71.6875 463.41210938 C-71.59179746 483.4978142 -73.29275483 503.41227807 -77.25 523.125 C-77.56360474 524.71199707 -77.56360474 524.71199707 -77.88354492 526.33105469 C-86.43354699 567.95240292 -103.47780558 607.98470559 -129 642 C-129.4626123 642.61955566 -129.92522461 643.23911133 -130.40185547 643.87744141 C-144.77555948 662.99645771 -161.91433797 681.56613582 -181 696 C-182.18537752 696.92516442 -183.37023614 697.85099391 -184.5546875 698.77734375 C-257.46047536 755.21223249 -352.57792312 775.94893134 -443.203125 765.1875 C-517.09048179 755.64817324 -583.80578989 724.47865994 -640.59765625 676.875 C-642.97120404 675.0224749 -645.41785378 673.54089051 -648 672 C-649.8359375 670.53515625 -649.8359375 670.53515625 -651.375 669.0625 C-651.89835938 668.57910156 -652.42171875 668.09570312 -652.9609375 667.59765625 C-654 666 -654 666 -653.82327271 664.17877197 C-652.72251746 661.26564893 -651.08158257 659.72925524 -648.86669922 657.54199219 C-647.98843475 656.66718201 -647.11017029 655.79237183 -646.20529175 654.89105225 C-645.23849835 653.942917 -644.2716283 652.99485992 -643.3046875 652.046875 C-642.31324688 651.06357949 -641.3225455 650.07953811 -640.33255005 649.0947876 C-637.72110702 646.50046599 -635.10124454 643.91482393 -632.47906494 641.33135986 C-628.30194972 637.21337051 -624.13719515 633.08289619 -619.97339249 628.95145416 C-618.52784466 627.51969211 -617.07844525 626.09192631 -615.62838745 624.66473389 C-611.86478534 620.9420685 -608.13764669 617.24290513 -604.70556641 613.20996094 C-599.84519274 607.54126113 -594.47066048 602.36088623 -589.17689514 597.10173035 C-587.18088476 595.11862966 -585.18814294 593.13229426 -583.19616699 591.1451416 C-578.25100049 586.21325572 -573.30037531 581.28686113 -568.34991455 576.36029053 C-564.15585394 572.18604645 -559.96390637 568.00970144 -555.77467346 563.83061218 C-553.82315749 561.88551955 -551.86862615 559.94349334 -549.91394043 558.00158691 C-543.01332637 551.18295354 -543.01332637 551.18295354 -536.5 544 C-531.72406177 538.39027935 -526.39964664 533.29033667 -521.17689514 528.10173035 C-519.18088476 526.11862966 -517.18814294 524.13229426 -515.19616699 522.1451416 C-510.25100049 517.21325572 -505.30037531 512.28686113 -500.34991455 507.36029053 C-496.15585394 503.18604645 -491.96390637 499.00970144 -487.77467346 494.83061218 C-485.82315749 492.88551955 -483.86862615 490.94349334 -481.91394043 489.00158691 C-475.01332637 482.18295354 -475.01332637 482.18295354 -468.5 475 C-463.72406177 469.39027935 -458.39964664 464.29033667 -453.17689514 459.10173035 C-451.18088476 457.11862966 -449.18814294 455.13229426 -447.19616699 453.1451416 C-442.25100049 448.21325572 -437.30037531 443.28686113 -432.34991455 438.36029053 C-428.15585394 434.18604645 -423.96390637 430.00970144 -419.77467346 425.83061218 C-417.82315749 423.88551955 -415.86862615 421.94349334 -413.91394043 420.00158691 C-407.01332637 413.18295354 -407.01332637 413.18295354 -400.5 406 C-395.72406177 400.39027935 -390.39964664 395.29033667 -385.17689514 390.10173035 C-383.18088476 388.11862966 -381.18814294 386.13229426 -379.19616699 384.1451416 C-374.25100049 379.21325572 -369.30037531 374.28686113 -364.34991455 369.36029053 C-360.15585394 365.18604645 -355.96390637 361.00970144 -351.77467346 356.83061218 C-349.82315749 354.88551955 -347.86862615 352.94349334 -345.91394043 351.00158691 C-340.73594172 345.84474133 -335.65004249 340.70244874 -330.91052246 335.13537598 C-326.60468694 330.32277737 -321.94211109 325.83648086 -317.36209106 321.28692627 C-315.3996836 319.33743245 -313.44054846 317.38470075 -311.48217773 315.43115234 C-306.62048803 310.58274085 -301.75333856 305.73982231 -296.88635254 300.89672852 C-292.76275058 296.79294582 -288.64126374 292.68706033 -284.52249146 288.57843018 C-282.60421486 286.66657521 -280.68292257 284.75778794 -278.76147461 282.84912109 C-271.94613867 276.11146482 -271.94613867 276.11146482 -265.51367188 269.01367188 C-260.73192739 263.40028757 -255.40432005 258.29497952 -250.17689514 253.10173035 C-248.18088476 251.11862966 -246.18814294 249.13229426 -244.19616699 247.1451416 C-239.25100049 242.21325572 -234.30037531 237.28686113 -229.34991455 232.36029053 C-225.15585394 228.18604645 -220.96390637 224.00970144 -216.77467346 219.83061218 C-214.82315749 217.88551955 -212.86862615 215.94349334 -210.91394043 214.00158691 C-204.01332637 207.18295354 -204.01332637 207.18295354 -197.5 200 C-192.72406177 194.39027935 -187.39964664 189.29033667 -182.17689514 184.10173035 C-180.18088476 182.11862966 -178.18814294 180.13229426 -176.19616699 178.1451416 C-171.25100049 173.21325572 -166.30037531 168.28686113 -161.34991455 163.36029053 C-157.15585394 159.18604645 -152.96390637 155.00970144 -148.77467346 150.83061218 C-146.82315749 148.88551955 -144.86862615 146.94349334 -142.91394043 145.00158691 C-136.01332637 138.18295354 -136.01332637 138.18295354 -129.5 131 C-124.72406177 125.39027935 -119.39964664 120.29033667 -114.17689514 115.10173035 C-112.18088476 113.11862966 -110.18814294 111.13229426 -108.19616699 109.1451416 C-103.25100049 104.21325572 -98.30037531 99.28686113 -93.34991455 94.36029053 C-89.15585394 90.18604645 -84.96390637 86.00970144 -80.77467346 81.83061218 C-78.82315749 79.88551955 -76.86862615 77.94349334 -74.91394043 76.00158691 C-69.7328877 70.84172335 -64.64149133 65.69687561 -59.89926147 60.12634277 C-55.05448143 54.70230655 -49.78070752 49.66103909 -44.62890625 44.53125 C-43.33831715 43.24252928 -42.0479511 41.95358515 -40.75779724 40.66442871 C-37.38499816 37.29542172 -34.00920538 33.92943045 -30.63275146 30.56408691 C-27.17846255 27.12008377 -23.72705315 23.67319751 -20.27539062 20.2265625 C-13.51972087 13.48157161 -6.76088066 6.73976742 0 0 Z M-190.04125977 211.92773438 C-190.91580811 212.80751953 -191.79035645 213.68730469 -192.69140625 214.59375 C-193.38845924 215.29292542 -193.38845924 215.29292542 -194.09959412 216.00622559 C-195.58958182 217.50183009 -197.07606335 219.00086695 -198.5625 220.5 C-199.56943315 221.51194598 -200.57659166 222.52366777 -201.58398438 223.53515625 C-204.05861405 226.02083721 -206.53010969 228.50960874 -209 231 C-207.60194053 233.91926795 -206.31902644 235.86113632 -203.9375 238.0625 C-199.19064344 242.6923909 -195.09493118 247.79531119 -191 253 C-190.50161621 253.63260742 -190.00323242 254.26521484 -189.48974609 254.91699219 C-152.82225695 301.6699954 -128.38908907 356.8132732 -121 416 C-120.89703613 416.79631836 -120.79407227 417.59263672 -120.68798828 418.41308594 C-112.10464868 487.43235702 -128.10517223 560.70637025 -170.83984375 616.25390625 C-171.55269531 617.16011719 -172.26554687 618.06632812 -173 619 C-173.68191406 619.87527344 -174.36382813 620.75054688 -175.06640625 621.65234375 C-183.72992109 632.51763584 -193.1793976 643.23605319 -204 652 C-205.13617647 652.95873571 -206.27150427 653.91847756 -207.40625 654.87890625 C-248.06935868 688.97798147 -297.81874099 709.65193918 -350 718 C-351.0120752 718.16516113 -352.02415039 718.33032227 -353.06689453 718.50048828 C-383.93168447 723.30897094 -417.19058272 723.01238878 -448 718 C-449.0513916 717.83371094 -450.1027832 717.66742187 -451.18603516 717.49609375 C-507.74052316 708.29054031 -569.79763953 683.20236047 -611 642 C-615.03642159 642.21088199 -617.05122147 644.70605265 -619.765625 647.47265625 C-620.65507813 648.37177734 -621.54453125 649.27089844 -622.4609375 650.19726562 C-623.38132812 651.14279297 -624.30171875 652.08832031 -625.25 653.0625 C-626.19461673 654.02216973 -627.13992195 654.98116229 -628.0859375 655.93945312 C-630.39749172 658.28638828 -632.7017634 660.64003391 -635 663 C-624.4657082 673.74232987 -612.27852387 682.38580518 -600 691 C-599.37254883 691.4434375 -598.74509766 691.886875 -598.09863281 692.34375 C-549.17467067 726.73291614 -491.06795148 746.12164951 -432 753 C-431.11812012 753.1045752 -430.23624023 753.20915039 -429.32763672 753.31689453 C-401.5285383 756.12037568 -371.55354422 755.52305437 -344 751 C-342.75557129 750.79600586 -341.51114258 750.59201172 -340.22900391 750.38183594 C-322.80904445 747.46033934 -305.81465715 743.43407989 -289 738 C-288.17628906 737.7417041 -287.35257813 737.4834082 -286.50390625 737.21728516 C-233.19660724 720.40215863 -181.5201323 687.34293417 -147 643 C-145.98059 641.7212575 -144.96105003 640.4426186 -143.94140625 639.1640625 C-95.77021974 578.15727089 -78.04026687 497.42061049 -86.1875 420.9375 C-95.00725006 347.73250284 -125.7378138 279.78512659 -173.75 224.0625 C-174.26876709 223.45970215 -174.78753418 222.8569043 -175.32202148 222.23583984 C-179.02540346 217.98844829 -182.82965028 213.79681008 -187 210 C-188.34676927 209.88556657 -188.34676927 209.88556657 -190.04125977 211.92773438 Z M-221.63232422 243.3894043 C-222.2667041 244.02789307 -222.90108398 244.66638184 -223.5546875 245.32421875 C-224.25207031 246.02353516 -224.94945312 246.72285156 -225.66796875 247.44335938 C-226.39628906 248.18392578 -227.12460938 248.92449219 -227.875 249.6875 C-228.95587891 250.7693457 -228.95587891 250.7693457 -230.05859375 251.87304688 C-233.59127555 255.43500505 -236.97492602 258.98504579 -240 263 C-238.33066838 267.04567428 -235.49365862 270.02321295 -232.625 273.25 C-184.23736974 328.87966511 -162.03335056 399.54690665 -166.2109375 472.69335938 C-169.85179255 520.05205722 -188.82840431 565.90156638 -221.015625 600.828125 C-222.76118302 602.73861763 -224.41857451 604.69004214 -226.0625 606.6875 C-229.35955434 610.55053369 -233.12080369 613.73749644 -237 617 C-237.80566406 617.71671875 -238.61132812 618.4334375 -239.44140625 619.171875 C-288.9192646 662.24506037 -356.67222319 679.65545846 -421.19726562 675.48461914 C-457.66776042 672.79192204 -493.88384537 663.34285753 -526.19091797 645.96777344 C-528.07622676 644.95922228 -529.97544777 643.98163079 -531.87890625 643.0078125 C-549.12081988 634.1193797 -565.25376923 622.58882402 -580 610 C-583.56764285 611.51376081 -585.83706287 613.60513129 -588.546875 616.3515625 C-589.39121094 617.20234375 -590.23554687 618.053125 -591.10546875 618.9296875 C-592.41451172 620.26386719 -592.41451172 620.26386719 -593.75 621.625 C-594.63816406 622.5221875 -595.52632812 623.419375 -596.44140625 624.34375 C-598.63216969 626.55807004 -600.81812763 628.77692435 -603 631 C-600.6654098 634.04499193 -598.44625968 636.66669309 -595.3828125 638.98046875 C-594.70130127 639.49931641 -594.01979004 640.01816406 -593.31762695 640.55273438 C-592.59406006 641.09220703 -591.87049316 641.63167969 -591.125 642.1875 C-590.36469482 642.75919922 -589.60438965 643.33089844 -588.82104492 643.91992188 C-587.27349616 645.07957118 -585.72330262 646.23569989 -584.17041016 647.38818359 C-582.28699619 648.7868674 -580.41418728 650.19837644 -578.54296875 651.61328125 C-516.11999667 698.15259337 -433.30289911 717.231264 -356.58398438 706.55224609 C-289.77284216 696.2575047 -222.44495759 664.73273688 -181.33984375 609.24609375 C-180.55817942 608.16530179 -179.77819523 607.08329247 -179 606 C-177.85724609 604.43958984 -177.85724609 604.43958984 -176.69140625 602.84765625 C-148.01737625 562.64438022 -132.17508077 513.35339216 -131 464 C-130.97953613 463.31196289 -130.95907227 462.62392578 -130.93798828 461.91503906 C-128.87739619 385.58798314 -157.61040106 310.01782721 -208 253 C-208.46486816 252.46810059 -208.92973633 251.93620117 -209.40869141 251.38818359 C-213.58319644 246.58015875 -213.58319644 246.58015875 -218 242 C-220.10343129 241.78394312 -220.10343129 241.78394312 -221.63232422 243.3894043 Z M-251 274 C-264.86 287.86 -264.86 287.86 -279 302 C-274.37270712 308.25118333 -274.37270712 308.25118333 -269.375 313.9375 C-253.36691128 331.80204007 -241.39810206 353.64347446 -233 376 C-232.58693604 377.0828125 -232.58693604 377.0828125 -232.16552734 378.1875 C-215.4649939 422.64172285 -214.68246145 475.43243991 -233.83569336 519.21386719 C-234.86784272 521.48734946 -235.92606806 523.74597733 -237 526 C-237.34401855 526.72912598 -237.68803711 527.45825195 -238.04248047 528.20947266 C-256.92298099 567.59886185 -293.13318648 596.289602 -333.77539062 611.00488281 C-347.56989833 615.73456412 -361.57738811 618.90668301 -376 621 C-376.66628418 621.1023999 -377.33256836 621.2047998 -378.01904297 621.31030273 C-408.54498278 625.40076397 -440.95096792 621.71178636 -470 612 C-471.05936768 611.64832764 -471.05936768 611.64832764 -472.14013672 611.28955078 C-498.20459358 602.46438104 -520.98869893 588.59230238 -542 571 C-546.19625909 572.63778045 -548.98676785 575.73323182 -552.078125 578.8828125 C-552.93528107 579.74421341 -552.93528107 579.74421341 -553.80975342 580.62301636 C-555.62792945 582.4523581 -557.43901492 584.28854193 -559.25 586.125 C-560.48391329 587.36894774 -561.71828322 588.6124427 -562.953125 589.85546875 C-565.97406743 592.89842367 -568.98867092 595.94753254 -572 599 C-532.46256945 639.21940252 -468.52022017 662.54217961 -412.7421875 663.30078125 C-409.11953547 663.3298349 -405.4977174 663.32737361 -401.875 663.3125 C-400.45468475 663.30926727 -400.45468475 663.30926727 -399.00567627 663.30596924 C-384.82255942 663.25421805 -370.9360033 662.87430068 -357 660 C-355.50726562 659.69400879 -355.50726562 659.69400879 -353.984375 659.38183594 C-296.41406791 647.20486519 -243.97811872 617.46784352 -211.09765625 567.66015625 C-178.98262595 517.56962982 -171.12141032 456.47830033 -183.0625 398.6875 C-192.24676352 357.64520961 -214.29763078 298.46824615 -251 274 Z M-291.40112305 314.15820312 C-292.19836792 314.96161133 -292.19836792 314.96161133 -293.01171875 315.78125 C-293.60533203 316.37679688 -294.19894531 316.97234375 -294.81054688 317.5859375 C-295.42994141 318.21757813 -296.04933594 318.84921875 -296.6875 319.5 C-297.28755859 320.10070312 -297.88761719 320.70140625 -298.50585938 321.3203125 C-301.99758222 324.84139561 -301.99758222 324.84139561 -305.3039856 328.53552246 C-310.80035539 334.99825749 -316.80911833 340.92360122 -322.82310486 346.89826965 C-324.81911524 348.88137034 -326.81185706 350.86770574 -328.80383301 352.8548584 C-333.74899951 357.78674428 -338.69962469 362.71313887 -343.65008545 367.63970947 C-347.84414606 371.81395355 -352.03609363 375.99029856 -356.22532654 380.16938782 C-358.17684251 382.11448045 -360.13137385 384.05650666 -362.08605957 385.99841309 C-368.98667363 392.81704646 -368.98667363 392.81704646 -375.5 400 C-380.27593823 405.60972065 -385.60035336 410.70966333 -390.82310486 415.89826965 C-392.81911524 417.88137034 -394.81185706 419.86770574 -396.80383301 421.8548584 C-401.74899951 426.78674428 -406.69962469 431.71313887 -411.65008545 436.63970947 C-415.84414606 440.81395355 -420.03609363 444.99029856 -424.22532654 449.16938782 C-426.17684251 451.11448045 -428.13137385 453.05650666 -430.08605957 454.99841309 C-436.98667363 461.81704646 -436.98667363 461.81704646 -443.5 469 C-448.27593823 474.60972065 -453.60035336 479.70966333 -458.82310486 484.89826965 C-460.81911524 486.88137034 -462.81185706 488.86770574 -464.80383301 490.8548584 C-469.74899951 495.78674428 -474.69962469 500.71313887 -479.65008545 505.63970947 C-483.84414606 509.81395355 -488.03609363 513.99029856 -492.22532654 518.16938782 C-494.17684251 520.11448045 -496.13137385 522.05650666 -498.08605957 523.99841309 C-503.44158467 529.3320608 -508.73724985 534.64886405 -513.6378479 540.4107666 C-515.5302238 542.61861621 -517.55810996 544.67082448 -519.62109375 546.71875 C-520.41064453 547.50507812 -521.20019531 548.29140625 -522.01367188 549.1015625 C-522.81353516 549.89304687 -523.61339844 550.68453125 -524.4375 551.5 C-525.26443359 552.32242188 -526.09136719 553.14484375 -526.94335938 553.9921875 C-528.95994959 555.99712113 -530.97885236 557.99966253 -533 560 C-529.24873048 571.25380857 -506.01487343 582.05146856 -495.82128906 587.30883789 C-492.57399667 588.93130009 -489.29835793 590.48435435 -486 592 C-484.81664062 592.54398438 -483.63328125 593.08796875 -482.4140625 593.6484375 C-435.75712354 614.30330711 -382.60427469 615.76046374 -334.86914062 597.79125977 C-316.71707989 590.68901999 -299.63186844 580.92697522 -285 568 C-284.26571777 567.36408936 -284.26571777 567.36408936 -283.51660156 566.71533203 C-276.21785323 560.38157357 -269.84356967 553.73847479 -264 546 C-263.40832031 545.22398437 -262.81664062 544.44796875 -262.20703125 543.6484375 C-248.36380349 524.70507319 -239.52857035 502.95236627 -235 480 C-234.81381104 479.06478516 -234.62762207 478.12957031 -234.43579102 477.16601562 C-232.73569086 467.56865164 -232.64297443 458.08871716 -232.6875 448.375 C-232.68965515 447.53106689 -232.6918103 446.68713379 -232.69403076 445.81762695 C-232.74399226 433.64088355 -233.07533046 421.87473644 -236 410 C-236.29801514 408.72793701 -236.29801514 408.72793701 -236.60205078 407.43017578 C-244.78437631 373.0521504 -261.38819007 337.14562927 -288 313 C-290.04605569 312.78762405 -290.04605569 312.78762405 -291.40112305 314.15820312 Z " fill="#FFFFFF" transform="translate(1459,686)"/>
</svg>
